<svg xmlns="http://www.w3.org/2000/svg" width="38" height="45" fill="none" xmlns:v="https://vecta.io/nano"><g fill="#f50"><path d="M3.516 23.9h12.656c.389 0 .703-.314.703-.703v-2.812c0-.389-.314-.703-.703-.703H3.516c-.389 0-.703.314-.703.703v2.813c0 .389.314.703.703.703zm.703-2.812h11.25v1.406H4.219v-1.406z"/><use href="#B"/><use href="#C"/><use href="#D"/><path d="M14.766 30.229a2.11 2.11 0 0 0-2.109 2.109c0 1.163.947 2.109 2.109 2.109s2.109-.946 2.109-2.109a2.11 2.11 0 0 0-2.109-2.109zm0 2.812c-.388 0-.703-.315-.703-.703s.315-.703.703-.703.703.315.703.703-.315.703-.703.703zm-4.922-2.812a2.11 2.11 0 0 0-2.109 2.109 2.11 2.11 0 0 0 2.109 2.109 2.11 2.11 0 0 0 2.109-2.109 2.11 2.11 0 0 0-2.109-2.109zm0 2.812c-.388 0-.703-.315-.703-.703s.315-.703.703-.703.703.315.703.703-.315.703-.703.703z"/><use href="#D" y="4.922"/><use href="#B" y="9.843"/><use href="#C" y="9.843"/><use href="#D" y="9.844"/><path d="M26.004 10.556h-.053a5.65 5.65 0 0 0-2.76-4.152v-.296c0-.036-.015-.067-.02-.102-.008-.051-.012-.103-.03-.151s-.045-.08-.071-.12-.042-.074-.073-.105c-.039-.041-.086-.07-.133-.101-.026-.017-.045-.042-.074-.056-.007-.004-.015-.006-.021-.009-1.507-.705-3.266-.705-4.766-.008l-.033.013c-.032.015-.053.043-.082.062-.044.03-.089.056-.126.094-.03.033-.049.072-.073.108s-.053.075-.071.119-.022.099-.03.15c-.006.035-.02.067-.02.103v.297a5.65 5.65 0 0 0-2.765 4.154h-.049a.7.7 0 0 0-.703.703v2.109a.7.7 0 0 0 .703.703h11.25a.7.7 0 0 0 .703-.703v-2.109a.7.7 0 0 0-.703-.702zm-8.436-2.441v.33a.7.7 0 1 0 1.406 0V6.578a4.25 4.25 0 0 1 2.811.001v1.866a.7.7 0 1 0 1.406 0v-.326a4.25 4.25 0 0 1 1.338 2.437h-8.305c.163-.943.637-1.806 1.344-2.441zm7.733 4.551h-9.844v-.703h9.844v.703zm4.93 7.025h2.109a.7.7 0 1 0 0-1.406h-2.109a.7.7 0 1 0 0 1.406z"/><use href="#E"/><use href="#F"/><path d="M32.339 28.832h-1.406c-.389 0-.703.314-.703.703s.314.703.703.703h1.406c.389 0 .703-.314.703-.703s-.314-.703-.703-.703z"/><use href="#F" y="7.032"/><use href="#E" y="14.062"/><path d="M37.963 5.627a.7.7 0 0 0-.053-.262c-.036-.086-.087-.165-.153-.229L32.838.213c-.065-.065-.143-.117-.229-.153s-.177-.054-.269-.054H9.844c-.389 0-.703.314-.703.703V16.87H2.109C.946 16.87 0 17.816 0 18.979v2.813 18.281 2.813c0 1.163.946 2.109 2.109 2.109h15.469c1.163 0 2.109-.946 2.109-2.109v-.706h17.574c.389 0 .703-.314.703-.703V5.635zm-4.92-3.22l2.521 2.524h-2.521V2.407zM1.406 18.979c0-.388.315-.703.703-.703h15.469c.388 0 .703.315.703.703v2.813 18.281c0 .388-.315.703-.703.703H2.109c-.388 0-.703-.315-.703-.703V21.792v-2.812zm16.172 24.609H2.109c-.388 0-.703-.315-.703-.703v-.833a2.08 2.08 0 0 0 .703.13h15.469c.248 0 .482-.051.703-.13v.833c0 .388-.315.703-.703.703zm2.109-3.516V37.27h6.323c.389 0 .703-.314.703-.703s-.314-.703-.703-.703h-6.323v-2.109h6.323c.389 0 .703-.314.703-.703s-.314-.703-.703-.703h-6.323v-2.109h6.323c.389 0 .703-.314.703-.703s-.314-.703-.703-.703h-6.323v-2.109h6.323c.389 0 .703-.314.703-.703s-.314-.703-.703-.703h-6.323v-2.109h6.323c.389 0 .703-.314.703-.703s-.314-.703-.703-.703h-6.323v-.01-2.099h6.323c.389 0 .703-.314.703-.703s-.314-.703-.703-.703h-6.449c-.289-.822-1.064-1.416-1.983-1.416h-7.031V1.412h21.09v4.222c0 .389.314.703.703.703h4.218v34.437H19.688v-.701z"/></g><defs ><path id="B" d="M14.766 25.307c-1.163 0-2.109.946-2.109 2.109s.947 2.109 2.109 2.109 2.109-.946 2.109-2.109-.946-2.109-2.109-2.109zm0 2.813c-.388 0-.703-.315-.703-.703s.315-.703.703-.703.703.315.703.703-.315.703-.703.703z"/><path id="C" d="M9.844 25.307c-1.163 0-2.109.946-2.109 2.109s.946 2.109 2.109 2.109 2.109-.946 2.109-2.109-.946-2.109-2.109-2.109zm0 2.813c-.388 0-.703-.315-.703-.703s.315-.703.703-.703.703.315.703.703-.315.703-.703.703z"/><path id="D" d="M4.922 29.525c1.163 0 2.109-.946 2.109-2.109s-.946-2.109-2.109-2.109-2.109.946-2.109 2.109.946 2.109 2.109 2.109zm0-2.812c.388 0 .703.315.703.703s-.315.703-.703.703-.703-.315-.703-.703.315-.703.703-.703z"/><path id="E" d="M32.337 21.801h-2.813c-.389 0-.703.314-.703.703s.314.703.703.703h2.813c.389 0 .703-.314.703-.703s-.314-.703-.703-.703z"/><path id="F" d="M32.34 25.316h-2.109c-.389 0-.703.314-.703.703s.314.703.703.703h2.109c.389 0 .703-.314.703-.703s-.314-.703-.703-.703z"/></defs></svg>