<svg xmlns="http://www.w3.org/2000/svg" width="60" height="60" fill="none" xmlns:v="https://vecta.io/nano"><g clip-path="url(#A)" fill="#f50"><path d="M24.649 53.19l-.176.861.17-.862a.88.88 0 0 0-1.032.692.88.88 0 0 0 .693 1.032c.072.014.127.019.182.019a.88.88 0 0 0 .164-1.743zm6.721.282l.087.874-.09-.874a.88.88 0 0 0-.784.964.88.88 0 0 0 .873.789 1.03 1.03 0 0 0 .091-.005l.024-.003c.481-.056.822-.49.768-.97s-.489-.826-.97-.776zm-3.363.111c-.497-.022-.902.354-.924.839s.359.895.844.917l.041.001a.88.88 0 0 0 .877-.839.88.88 0 0 0-.838-.918zm-6.603-1.287l-.011-.004c-.457-.164-.955.075-1.119.532s.078.962.535 1.127a.88.88 0 0 0 1.124-.53.88.88 0 0 0-.53-1.124zm13.286.561l.217.852-.219-.851a.88.88 0 0 0 .218 1.73.87.87 0 0 0 .22-.028l.023-.006c.467-.127.739-.607.615-1.074a.88.88 0 0 0-1.074-.623zm3.177-1.108l.348.807-.351-.806a.88.88 0 0 0 .352 1.685.88.88 0 0 0 .35-.073l.022-.01c.441-.199.635-.715.439-1.157a.88.88 0 0 0-1.159-.446zm-19.82-40.066c.141 0 .284-.034.417-.104a.88.88 0 0 0 .362-1.189.88.88 0 0 0-1.189-.362l-.011.005c-.428.228-.585.758-.357 1.187a.88.88 0 0 0 .778.463zM7.881 21.5a.88.88 0 0 0 1.187-.37l.016-.031a.88.88 0 0 0-.401-1.177.88.88 0 0 0-1.172.392.88.88 0 0 0 .371 1.185zm-1.237 3.307c.093.032.188.047.282.047a.88.88 0 0 0 .832-.597l.011-.035a.88.88 0 0 0-.582-1.098.88.88 0 0 0-1.095.571.88.88 0 0 0 .552 1.112zm2.972-6.381a.87.87 0 0 0 .516.168.88.88 0 0 0 .711-.362l.011-.015a.88.88 0 0 0-.204-1.224.88.88 0 0 0-1.226.202l.708.521-.711-.517a.88.88 0 0 0 .194 1.228zm5.447-4.845a.87.87 0 0 0 .529-.179.88.88 0 0 0 .19-1.228.88.88 0 0 0-1.228-.19l-.022.016a.88.88 0 0 0 .531 1.581zM5.859 38.135a.88.88 0 0 0 1.098.58.88.88 0 0 0 .584-1.093.88.88 0 0 0-1.076-.606.88.88 0 0 0-.617 1.079l.011.038zm6.551-22.238a.88.88 0 1 0-.614-1.507l-.015.015a.88.88 0 0 0 .014 1.242c.171.167.393.25.615.25zM6.829 34.305a.88.88 0 0 0-.976-.759.88.88 0 0 0-.769.977l.005.035c.064.437.439.75.868.75a.82.82 0 0 0 .129-.01.88.88 0 0 0 .743-.993zm-1.101-2.518h.027a.88.88 0 0 0 .878-.853l.001-.038a.88.88 0 0 0-.879-.879.88.88 0 0 0-.879.867.88.88 0 0 0 .852.902zm.191-3.525c.053.009.104.014.156.014a.88.88 0 0 0 .864-.724l.006-.039a.88.88 0 0 0-.742-.997.88.88 0 0 0-.996.729.88.88 0 0 0 .711 1.017zm41.462-9.56c.17.247.444.38.723.38.172 0 .346-.05.498-.155a.88.88 0 0 0 .226-1.222l-.731.489.728-.493a.88.88 0 0 0-1.221-.234.88.88 0 0 0-.234 1.221l.011.016zm4.486 8.845a.88.88 0 0 0-.775.972l.005.038a.88.88 0 0 0 .869.754c.041 0 .083-.003.125-.009a.88.88 0 0 0 .747-.983.88.88 0 0 0-.971-.772zm-1.483-2.48l.004.011a.88.88 0 0 0 .843.631c.082 0 .165-.011.248-.036a.88.88 0 0 0 .596-1.091l-.004-.011a.88.88 0 0 0-1.091-.595.88.88 0 0 0-.595 1.091zm-1.241-3.287c.153.312.467.493.793.493a.87.87 0 0 0 .385-.09c.435-.214.616-.738.402-1.174l-.797.371.796-.373a.88.88 0 0 0-1.169-.422.88.88 0 0 0-.423 1.169l.013.026zm-3.977-5.822c.172.176.4.264.628.264.222 0 .444-.083.615-.251a.885.885 0 1 0-1.22-1.282.88.88 0 0 0-.049 1.242l.026.028zm6.985 15.259a.88.88 0 0 0-.904.849.88.88 0 0 0 .829.918l.05.001a.88.88 0 0 0 .877-.83l.001-.036a.88.88 0 0 0-.853-.902zM39.543 11.642l.021.011a.87.87 0 0 0 .41.103.88.88 0 0 0 .417-1.654l-.425.769.422-.771a.88.88 0 0 0-1.193.348.88.88 0 0 0 .348 1.193zm2.973 1.929l.014.011c.159.12.345.178.531.178a.88.88 0 0 0 .532-1.579l-.006-.004a.88.88 0 0 0-1.232.162.88.88 0 0 0 .162 1.233z"/><path d="M59.457 44.523l-4.126-4.133c-.351-.352-.818-.545-1.314-.545s-.963.194-1.314.545l-.096.096-.271-.271a3.55 3.55 0 0 1-.77-1.151.85.85 0 0 0-.063-.163 3.54 3.54 0 0 1-.205-1.194v-1.169a.88.88 0 0 0 .261.089c.05.009.1.013.15.013a.88.88 0 0 0 .863-.721.88.88 0 0 0-.69-1.032c-.209-.042-.416-.005-.59.089a4.95 4.95 0 0 0-1.453-3.305l-4.003-4.01a4.72 4.72 0 0 0-3.363-1.395 4.71 4.71 0 0 0-2.71.85l-.425-.427V16.636a4.99 4.99 0 0 0-1.238-3.291 3.55 3.55 0 0 1-.881-2.341v-.736h.06a1.86 1.86 0 0 0 1.858-1.859V2.562A1.86 1.86 0 0 0 37.283.703H20.866a1.86 1.86 0 0 0-1.858 1.859v5.847a1.86 1.86 0 0 0 1.858 1.859h.136v.385a3.53 3.53 0 0 1-1.037 2.508l-1.772 1.775a4.96 4.96 0 0 0-1.458 3.526v5.67a4.74 4.74 0 0 0 .51 2.142 4.72 4.72 0 0 0-3.084 1.386l-4.003 4.01A4.96 4.96 0 0 0 8.7 35.196v2.51c0 .948-.368 1.838-1.037 2.508l-.268.268-.098-.093c-.351-.352-.818-.545-1.314-.545s-.963.194-1.314.545L.542 44.523c-.723.725-.723 1.904 0 2.629l1.413 1.415a.88.88 0 0 0 1.243.001.88.88 0 0 0 .001-1.243L1.786 45.91c-.04-.04-.04-.104 0-.144l4.126-4.133c.038-.038.101-.039.14 0l.717.719h0l9.795 9.812 1.097 1.099c.04.04.04.104 0 .144l-4.126 4.133c-.039.039-.102.039-.14 0l-7.709-7.722a.88.88 0 0 0-1.243-.001.88.88 0 0 0-.001 1.243l7.709 7.722c.351.351.818.545 1.314.545s.963-.194 1.314-.545l4.126-4.133c.723-.724.723-1.903 0-2.628l-.045-.045.52-.521a3.53 3.53 0 0 1 2.274-1.031 4.97 4.97 0 0 0 3.2-1.451l3.79-3.798a3.01 3.01 0 0 0 2.175-2.293 2.98 2.98 0 0 0 1.284.29c1.653 0 2.998-1.346 2.998-3.001v-2.087a2.98 2.98 0 0 0 1.24.27c1.653 0 2.997-1.346 2.997-3.002v-6.17l2.704 2.717c.172.173.397.259.623.259a.87.87 0 0 0 .62-.256.88.88 0 0 0 .003-1.243l-2.254-2.265c.436-.24.928-.369 1.44-.369.8 0 1.553.312 2.119.879l4.003 4.009a3.21 3.21 0 0 1 .944 2.284v2.51c0 1.417.551 2.748 1.55 3.75l.273.273-1.275 1.277-7.711 7.724-.43-.431-.089-.089a5.29 5.29 0 0 0-3.404-1.543c-.781-.051-1.517-.384-2.073-.941l-2.888-2.872a.88.88 0 0 0-1.243.003.88.88 0 0 0 .004 1.243l2.886 2.87c.856.857 1.992 1.373 3.201 1.451.858.055 1.665.422 2.273 1.03l.042.043a.84.84 0 0 0 .073.073l.405.406-.045.045c-.723.725-.723 1.903 0 2.628l4.126 4.133c.351.351.818.545 1.314.545s.963-.194 1.314-.545l11.61-11.63c.723-.725.723-1.903 0-2.628zm-7.568-8.74l-.017-.003-.16-.032.177.035zM23.612 47.73c-.553.555-1.289.888-2.07.939a5.29 5.29 0 0 0-3.404 1.543l-.519.52-.467-.468-.018-.018-8.501-8.515.273-.273a5.27 5.27 0 0 0 1.55-3.75v-2.51a3.21 3.21 0 0 1 .944-2.284l4.003-4.009c.566-.567 1.318-.879 2.119-.879.513 0 1.007.129 1.444.371l-2.258 2.261a.88.88 0 0 0 .622 1.5c.225 0 .45-.086.622-.258l2.697-2.702v10.973c0 1.655 1.345 3.002 2.998 3.002a2.98 2.98 0 0 0 1.301-.297c.179.871.735 1.605 1.49 2.024l-2.827 2.833zm13.972-12.38c0 .686-.557 1.244-1.24 1.244s-1.24-.558-1.24-1.244v-9.804a.88.88 0 0 0-.879-.879.88.88 0 0 0-.879.879v14.623c0 .686-.556 1.243-1.24 1.243-.614 0-1.123-.45-1.222-1.038V25.536a.88.88 0 1 0-1.776.01v14.622a3 3 0 0 0 .018.33v1.771c0 .686-.556 1.244-1.24 1.244s-1.24-.558-1.24-1.244V25.526a.88.88 0 0 0-.879-.879.88.88 0 0 0-.879.879v14.643c0 .686-.556 1.244-1.24 1.244s-1.24-.558-1.24-1.244V23.82a.88.88 0 0 0-.879-.879.88.88 0 0 0-.879.879v3.024c-.074.024-.145.057-.212.101-1.137-.427-1.948-1.527-1.948-2.813v-5.67a3.21 3.21 0 0 1 .944-2.284l1.772-1.775a5.27 5.27 0 0 0 1.551-3.75v-.385h1.767a.88.88 0 0 0 .879-.879.88.88 0 0 0-.879-.879h-3.66c-.055 0-.1-.045-.1-.101V2.562c0-.055.045-.101.1-.101h16.417c.056 0 .101.045.101.101v5.847a.1.1 0 0 1-.101.101H28.65a.88.88 0 0 0-.879.879.88.88 0 0 0 .879.879h6.813v.736a5.31 5.31 0 0 0 1.316 3.501 3.23 3.23 0 0 1 .803 2.132V35.35zm20.629 10.559l-11.61 11.63c-.019.02-.043.029-.07.029s-.05-.01-.07-.029l-4.126-4.133c-.04-.04-.04-.104 0-.144l.664-.666h0l6.74-6.751 4.206-4.213c.038-.039.101-.039.14 0l4.126 4.133c.04.04.04.104 0 .144zM23.647 4.547a.94.94 0 0 0-.936.937.94.94 0 0 0 .936.938.94.94 0 0 0 .936-.937.94.94 0 0 0-.936-.937zm30.656 40.064a.94.94 0 0 0-.936.938.94.94 0 0 0 .936.938.94.94 0 0 0 .936-.937.94.94 0 0 0-.936-.937zm-39.658 8.967a.94.94 0 0 0-.936-.937.94.94 0 0 0-.936.938.94.94 0 0 0 .936.938.94.94 0 0 0 .936-.937z"/></g><defs><clipPath id="A"><path fill="#fff" d="M0 0h60v60H0z"/></clipPath></defs></svg>