<svg xmlns="http://www.w3.org/2000/svg" width="60" height="60" fill="none" xmlns:v="https://vecta.io/nano"><g fill="#f50"><path d="M22.5 54.375H15a.94.94 0 0 0-.937.938.94.94 0 0 0 .938.938h7.5a.94.94 0 0 0 .938-.937.94.94 0 0 0-.937-.937zM54.844 18.75H35.625V4.219c-.001-.87-.347-1.704-.962-2.319a3.28 3.28 0 0 0-2.319-.962H5.156c-.87.001-1.704.347-2.319.962s-.961 1.449-.962 2.319v51.562c.001.87.347 1.704.962 2.319s1.449.961 2.319.962h27.188c.87-.001 1.704-.347 2.319-.962s.961-1.449.962-2.319V42.188h19.219c.87-.001 1.704-.347 2.319-.962s.961-1.449.962-2.319V22.031c-.001-.87-.347-1.704-.962-2.319s-1.449-.961-2.319-.962zM23.174 2.813l-.469 1.875h-7.91l-.469-1.875h8.848zM33.75 55.781a1.41 1.41 0 0 1-1.406 1.406H5.156a1.41 1.41 0 0 1-1.406-1.406V4.219a1.41 1.41 0 0 1 .412-.994c.263-.264.621-.412.994-.412h7.236l.761 3.04a.94.94 0 0 0 .909.71h9.375a.94.94 0 0 0 .909-.71l.76-3.04h7.236a1.41 1.41 0 0 1 1.406 1.406v51.562zm1.875-22.969h2.813v3.75h-2.812v-3.75zm20.625 6.094a1.41 1.41 0 0 1-1.406 1.406H35.625v-1.875h3.75a.94.94 0 0 0 .938-.937v-5.625a.94.94 0 0 0-.937-.937h-3.75v-2.812H56.25v10.781zm0-12.656H35.625v-1.875H56.25v1.875zm0-3.75H35.625v-1.875h19.219a1.41 1.41 0 0 1 1.406 1.406v.469z"/><use href="#B"/><use href="#B" y="2.812"/><path d="M53.438 36.563h-3.75a.94.94 0 0 0-.937.938.94.94 0 0 0 .938.938h3.75a.94.94 0 0 0 .938-.937.94.94 0 0 0-.937-.937zM18.75 18.75a11.25 11.25 0 0 0-7.955 19.205A11.25 11.25 0 0 0 30 30a11.26 11.26 0 0 0-3.299-7.951c-2.109-2.109-4.969-3.295-7.951-3.299zm0 20.625a9.38 9.38 0 0 1-5.209-1.58c-1.542-1.03-2.743-2.494-3.453-4.207a9.37 9.37 0 0 1-.533-5.417c.362-1.819 1.255-3.489 2.566-4.8a9.38 9.38 0 0 1 4.8-2.566 9.37 9.37 0 0 1 5.417.534c1.713.71 3.177 1.911 4.207 3.453s1.58 3.354 1.58 5.209c-.003 2.486-.991 4.868-2.749 6.626s-4.141 2.746-6.626 2.749zm4.962-12.85l-5.988 5.988-3.099-2.325a.94.94 0 0 0-1.312.188.94.94 0 0 0 .188 1.313l3.75 2.813a.94.94 0 0 0 1.225-.087l6.563-6.562c.176-.176.275-.414.275-.663s-.099-.487-.275-.663-.414-.275-.663-.275a.94.94 0 0 0-.663.275z"/></g><defs ><path id="B" d="M53.438 30.938H45a.94.94 0 0 0-.937.938.94.94 0 0 0 .938.938h8.438a.94.94 0 0 0 .938-.937.94.94 0 0 0-.937-.937z"/></defs></svg>