<svg xmlns="http://www.w3.org/2000/svg" width="60px" height="50px" fill="none" xmlns:v="https://vecta.io/nano" transform="rotate(0) scale(1, 1)"><path d="M59.987 13.446a3.43 3.43 0 0 0-1.167-2.616l-9.12-8.198C48.566 1.612 47.136.57 45.125.57s-3.445 1.044-4.578 2.065l-9.114 8.204a3.43 3.43 0 0 0-1.165 2.617l.004 10.529h-6.053c1.095-2.275 1.858-5.869 1.002-8.56-.603-1.894-1.931-3.142-3.841-3.611-.244-.06-.501-.019-.715.112s-.366.343-.422.588l-.291 1.273c-1.126 4.959-1.271 5.596-4.381 7.629-2.197 1.436-2.353 1.622-3.72 3.615l-.466.678c-.553.8-1.261 1.161-2.29 1.17h-.079v-.224a2.12 2.12 0 0 0-2.118-2.118H2.118A2.12 2.12 0 0 0 0 26.656v20.656a2.12 2.12 0 0 0 2.118 2.118h4.781a2.12 2.12 0 0 0 2.118-2.118v-.961l1.28.467c2.13.795 4.544 1.697 8.128 1.697h12.445a3.75 3.75 0 0 0 1.494-.309c.45.202.938.309 1.437.309h.001l22.68-.008c1.941-.001 3.519-1.58 3.518-3.521l-.013-31.54zM7.141 47.312c0 .132-.111.243-.243.243H2.118c-.131 0-.243-.111-.243-.243V26.656c0-.131.111-.243.243-.243h4.781c.132 0 .243.111.243.243v20.656zm11.283-.672c-3.245 0-5.394-.803-7.472-1.579l-1.936-.689V28.755h.09c1.638-.014 2.923-.68 3.821-1.979l.47-.684c1.26-1.838 1.26-1.838 3.199-3.106 3.745-2.448 4.021-3.664 5.183-8.783l.052-.231c.773.41 1.3 1.078 1.601 2.022.884 2.778-.51 7.054-1.602 8.315a.94.94 0 0 0 .709 1.551h10.718c1.044 0 1.894.85 1.894 1.894s-.85 1.894-1.894 1.894H25.87a.94.94 0 0 0-.937.938.94.94 0 0 0 .938.938h8.938c1.044 0 1.894.85 1.894 1.894s-.85 1.894-1.894 1.894H25.87a.94.94 0 0 0-.937.938.94.94 0 0 0 .938.938h7.964c1.044 0 1.894.85 1.894 1.894s-.85 1.894-1.894 1.894H25.87a.94.94 0 0 0-.937.938.94.94 0 0 0 .938.938h5c1.044 0 1.894.85 1.894 1.894s-.85 1.894-1.894 1.894H18.424zm38.056-.008l-22.355.008c.325-.557.513-1.204.513-1.894s-.189-1.346-.518-1.905c1.945-.147 3.482-1.777 3.482-3.758a3.75 3.75 0 0 0-.88-2.418 3.77 3.77 0 0 0 1.854-3.245c0-1.544-.933-2.874-2.264-3.456a3.75 3.75 0 0 0 .716-2.208c0-2.078-1.691-3.769-3.769-3.769h-1.112l-.004-10.53a1.56 1.56 0 0 1 .544-1.223l9.114-8.204c1.249-1.124 2.212-1.583 3.323-1.583h.001c1.11 0 2.073.458 3.322 1.581l9.12 8.198c.367.33.545.73.545 1.223l.012 31.54c0 .907-.737 1.645-1.644 1.645zm-5.725-12.687c.137 1.131-.166 2.164-.877 2.986-.836.967-2.226 1.615-3.807 1.797v1.192a.94.94 0 0 1-.937.938.94.94 0 0 1-.937-.937v-1.206c-2.342-.322-4.162-1.803-4.689-3.916a.94.94 0 0 1 .683-1.137.94.94 0 0 1 1.137.683c.486 1.948 2.445 2.597 3.977 2.559 1.315-.031 2.554-.502 3.157-1.199.366-.423.508-.925.434-1.534-.175-1.441-1.377-2.269-3.899-2.683-4.013-.659-4.947-2.694-5.025-4.285-.107-2.205 1.437-4.053 3.841-4.598.126-.029.254-.053.385-.074v-1.219a.94.94 0 0 1 .938-.937.94.94 0 0 1 .938.938v1.211c1.717.254 3.41 1.249 4.256 3.264a.94.94 0 0 1-.501 1.227c-.478.201-1.027-.024-1.227-.502-.813-1.937-2.782-2.44-4.372-2.079-1.202.273-2.459 1.119-2.383 2.679.024.488.096 1.974 3.456 2.526 1.245.204 5.034.826 5.456 4.307zm-5.629-20.804c1.841 0 3.339-1.498 3.339-3.339s-1.498-3.339-3.339-3.339-3.339 1.498-3.339 3.339 1.498 3.339 3.339 3.339zm0-4.802c.807 0 1.464.657 1.464 1.464s-.657 1.464-1.464 1.464-1.464-.657-1.464-1.464.657-1.464 1.464-1.464z" fill="#5c8eff"/></svg>